<svg width="274" height="67" viewBox="0 0 274 67" fill="none" xmlns="http://www.w3.org/2000/svg">
<path d="M90.2812 55.6875C86.8854 55.6875 83.9479 54.9792 81.4688 53.5625C78.9896 52.1458 77.0833 50.1354 75.75 47.5312C74.4167 44.9062 73.75 41.8021 73.75 38.2188V38.1875C73.75 34.6042 74.4167 31.5208 75.75 28.9375C77.1042 26.3333 79.0104 24.3333 81.4688 22.9375C83.9479 21.5208 86.8542 20.8125 90.1875 20.8125C93.2292 20.8125 95.8646 21.3854 98.0938 22.5312C100.323 23.6562 102.062 25.1875 103.312 27.125C104.583 29.0625 105.281 31.2396 105.406 33.6562V33.875H96.9375L96.875 33.5938C96.6042 31.9896 95.9167 30.6562 94.8125 29.5938C93.7083 28.5104 92.2083 27.9688 90.3125 27.9688C88.8333 27.9688 87.5417 28.3854 86.4375 29.2188C85.3542 30.0312 84.5104 31.2083 83.9062 32.75C83.3229 34.2708 83.0312 36.0938 83.0312 38.2188V38.25C83.0312 40.4375 83.3229 42.3021 83.9062 43.8438C84.5104 45.3646 85.3542 46.5312 86.4375 47.3438C87.5417 48.1354 88.8438 48.5312 90.3438 48.5312C92.1771 48.5312 93.6458 48.0208 94.75 47C95.875 45.9583 96.5938 44.5938 96.9062 42.9062L96.9375 42.625H105.438V42.8125C105.292 45.25 104.583 47.4375 103.312 49.375C102.042 51.3125 100.292 52.8542 98.0625 54C95.8542 55.125 93.2604 55.6875 90.2812 55.6875ZM109.662 55V9.90625H118.787V27.2812H118.975C119.85 25.1979 121.152 23.6042 122.881 22.5C124.631 21.375 126.756 20.8125 129.256 20.8125C131.694 20.8125 133.787 21.3542 135.537 22.4375C137.287 23.5 138.631 25.0104 139.569 26.9688C140.527 28.9271 141.006 31.2604 141.006 33.9688V55H131.881V35.8438C131.881 33.5104 131.319 31.6875 130.194 30.375C129.09 29.0417 127.496 28.375 125.412 28.375C124.079 28.375 122.912 28.6979 121.912 29.3438C120.933 29.9688 120.162 30.8438 119.6 31.9688C119.058 33.0729 118.787 34.3542 118.787 35.8125V55H109.662ZM157.887 55.6875C155.429 55.6875 153.335 55.1875 151.606 54.1875C149.898 53.1667 148.585 51.7188 147.669 49.8438C146.773 47.9688 146.325 45.7292 146.325 43.125V21.5H155.45V41.2188C155.45 43.4062 155.96 45.1042 156.981 46.3125C158.023 47.5208 159.565 48.125 161.606 48.125C162.627 48.125 163.544 47.9479 164.356 47.5938C165.19 47.2396 165.898 46.7396 166.481 46.0938C167.065 45.4271 167.512 44.6458 167.825 43.75C168.137 42.8333 168.294 41.8333 168.294 40.75V21.5H177.419V55H168.294V49.4688H168.106C167.523 50.7396 166.752 51.8438 165.794 52.7812C164.856 53.7188 163.721 54.4375 162.387 54.9375C161.075 55.4375 159.575 55.6875 157.887 55.6875ZM182.956 55V21.5H192.081V27H192.269C193.144 25.0833 194.435 23.5729 196.144 22.4688C197.852 21.3646 199.967 20.8125 202.488 20.8125C206.175 20.8125 209.019 21.9271 211.019 24.1562C213.04 26.3646 214.05 29.4375 214.05 33.375V55H204.925V35.25C204.925 33.0625 204.404 31.375 203.363 30.1875C202.342 28.9792 200.81 28.375 198.769 28.375C197.415 28.375 196.238 28.6875 195.238 29.3125C194.238 29.9167 193.456 30.7708 192.894 31.875C192.352 32.9792 192.081 34.2708 192.081 35.75V55H182.956ZM219.744 55V9.90625H228.869V55H219.744ZM240.806 55L230.462 40.1875L236.244 33.25L251.337 55H240.806ZM227.744 45.125V34.9062H229.056L240.369 21.5H250.712L235.244 39.0938H233.212L227.744 45.125ZM253.469 55V21.5H262.594V27.3438H262.781C263.281 25.2812 264.188 23.6771 265.5 22.5312C266.812 21.3854 268.448 20.8125 270.406 20.8125C270.906 20.8125 271.385 20.8438 271.844 20.9062C272.302 20.9688 272.698 21.0521 273.031 21.1562V29.1875C272.656 29.0417 272.177 28.9271 271.594 28.8438C271.01 28.7396 270.385 28.6875 269.719 28.6875C268.219 28.6875 266.938 28.9792 265.875 29.5625C264.812 30.1458 264 31 263.438 32.125C262.875 33.25 262.594 34.625 262.594 36.25V55H253.469Z" fill="white"/>
<path d="M15.68 29.08C17.1338 29.6619 18.7265 29.8044 20.2605 29.4897C21.7945 29.175 23.2024 28.4171 24.3097 27.3097C25.4171 26.2024 26.175 24.7945 26.4897 23.2605C26.8044 21.7265 26.6619 20.1338 26.08 18.68C27.7715 18.2246 29.2668 17.2266 30.3362 15.8392C31.4057 14.4518 31.9902 12.7517 32 11C36.7468 11 41.3869 12.4076 45.3337 15.0447C49.2805 17.6819 52.3566 21.4302 54.1731 25.8156C55.9896 30.201 56.4649 35.0266 55.5389 39.6822C54.6128 44.3377 52.327 48.6141 48.9706 51.9706C45.6141 55.327 41.3377 57.6128 36.6822 58.5389C32.0266 59.4649 27.201 58.9896 22.8156 57.1731C18.4302 55.3566 14.6819 52.2805 12.0447 48.3337C9.40758 44.3869 8 39.7468 8 35C9.75171 34.9902 11.4518 34.4057 12.8392 33.3362C14.2266 32.2668 15.2246 30.7715 15.68 29.08Z" stroke="url(#paint0_linear_38_8)" stroke-width="7" stroke-linecap="round" stroke-linejoin="round"/>
<defs>
<linearGradient id="paint0_linear_38_8" x1="32" y1="11" x2="46.2703" y2="59.2162" gradientUnits="userSpaceOnUse">
<stop offset="0.612553" stop-color="white"/>
<stop offset="1" stop-color="white" stop-opacity="0.8"/>
</linearGradient>
</defs>
</svg>
