<svg width="89" height="24" viewBox="0 0 89 24" fill="none" xmlns="http://www.w3.org/2000/svg">
<path d="M5.88 9.78C6.42518 9.99822 7.02243 10.0516 7.59768 9.93364C8.17294 9.81564 8.70092 9.53139 9.11616 9.11616C9.53139 8.70092 9.81564 8.17294 9.93364 7.59768C10.0516 7.02243 9.99822 6.42518 9.78 5.88C10.4143 5.70922 10.975 5.33496 11.3761 4.81468C11.7771 4.29441 11.9963 3.65689 12 3C13.78 3 15.5201 3.52784 17.0001 4.51677C18.4802 5.50571 19.6337 6.91131 20.3149 8.55585C20.9961 10.2004 21.1743 12.01 20.8271 13.7558C20.4798 15.5016 19.6226 17.1053 18.364 18.364C17.1053 19.6226 15.5016 20.4798 13.7558 20.8271C12.01 21.1743 10.2004 20.9961 8.55585 20.3149C6.91131 19.6337 5.50571 18.4802 4.51677 17.0001C3.52784 15.5201 3 13.78 3 12C3.65689 11.9963 4.29441 11.7771 4.81468 11.3761C5.33496 10.975 5.70922 10.4143 5.88 9.78Z" stroke="black" stroke-width="1.8" stroke-linecap="round" stroke-linejoin="round"/>
<path d="M36.9297 18.1797C36.0339 18.1797 35.2708 18.0052 34.6406 17.6562C34.0156 17.3021 33.5391 16.7917 33.2109 16.125C32.8828 15.4531 32.7188 14.6406 32.7188 13.6875V13.6719C32.7188 12.724 32.8828 11.9193 33.2109 11.2578C33.5391 10.5964 34.0156 10.0911 34.6406 9.74219C35.2708 9.38802 36.0339 9.21094 36.9297 9.21094C37.6901 9.21094 38.3438 9.34115 38.8906 9.60156C39.4375 9.86198 39.8698 10.2292 40.1875 10.7031C40.5052 11.1771 40.6979 11.7344 40.7656 12.375V12.3984H38.6484L38.6406 12.3828C38.5625 11.9661 38.3802 11.6328 38.0938 11.3828C37.8125 11.1276 37.4271 11 36.9375 11C36.5312 11 36.1849 11.1042 35.8984 11.3125C35.6172 11.5156 35.4036 11.8151 35.2578 12.2109C35.112 12.6068 35.0391 13.0938 35.0391 13.6719V13.6875C35.0391 14.2656 35.112 14.7578 35.2578 15.1641C35.4089 15.5651 35.625 15.8698 35.9062 16.0781C36.1875 16.2865 36.5312 16.3906 36.9375 16.3906C37.4062 16.3906 37.7812 16.2812 38.0625 16.0625C38.3438 15.8438 38.5339 15.5156 38.6328 15.0781L38.6484 15.0547L40.7578 15.0469V15.1016C40.6745 15.7214 40.474 16.263 40.1562 16.7266C39.8385 17.1901 39.4089 17.5495 38.8672 17.8047C38.3255 18.0547 37.6797 18.1797 36.9297 18.1797ZM42.625 18V6.10938H44.9062V10.7266H45.0469C45.2448 10.2578 45.5521 9.88802 45.9688 9.61719C46.3854 9.34635 46.901 9.21094 47.5156 9.21094C48.1562 9.21094 48.6927 9.33854 49.125 9.59375C49.5625 9.84375 49.8932 10.2083 50.1172 10.6875C50.3464 11.1667 50.4609 11.75 50.4609 12.4375V18H48.1797V12.9531C48.1797 12.3438 48.0521 11.8828 47.7969 11.5703C47.5417 11.2578 47.1432 11.1016 46.6016 11.1016C46.2526 11.1016 45.9505 11.1823 45.6953 11.3438C45.4453 11.5 45.25 11.7214 45.1094 12.0078C44.974 12.2943 44.9062 12.6328 44.9062 13.0234V18H42.625ZM55.5156 18.1797C54.875 18.1797 54.3359 18.0547 53.8984 17.8047C53.4661 17.5547 53.1406 17.1901 52.9219 16.7109C52.7031 16.2266 52.5938 15.6432 52.5938 14.9609V9.39844H54.875V14.4375C54.875 15.0469 54.9948 15.5078 55.2344 15.8203C55.4792 16.1328 55.8724 16.2891 56.4141 16.2891C56.6953 16.2891 56.9427 16.2448 57.1562 16.1562C57.375 16.0625 57.5573 15.9323 57.7031 15.7656C57.849 15.599 57.9583 15.3984 58.0312 15.1641C58.1094 14.9245 58.1484 14.6589 58.1484 14.3672V9.39844H60.4297V18H58.1484V16.6719H58.0078C57.8776 16.9844 57.6953 17.2552 57.4609 17.4844C57.2266 17.7083 56.9453 17.8802 56.6172 18C56.2891 18.1198 55.9219 18.1797 55.5156 18.1797ZM62.7188 18V9.39844H65V10.7266H65.1406C65.3385 10.2578 65.6458 9.88802 66.0625 9.61719C66.4792 9.34635 66.9948 9.21094 67.6094 9.21094C68.5677 9.21094 69.2969 9.49219 69.7969 10.0547C70.3021 10.612 70.5547 11.4062 70.5547 12.4375V18H68.2734V12.9531C68.2734 12.3438 68.1458 11.8828 67.8906 11.5703C67.6354 11.2578 67.237 11.1016 66.6953 11.1016C66.3464 11.1016 66.0443 11.1823 65.7891 11.3438C65.5391 11.5 65.3438 11.7214 65.2031 12.0078C65.0677 12.2943 65 12.6328 65 13.0234V18H62.7188ZM72.8438 18V6.10938H75.125V18H72.8438ZM78.2578 18L75.6172 14.2656L77.3203 12.8984L80.9531 18H78.2578ZM74.9688 15.2812L74.8906 12.7969H75.2656L78.1406 9.39844H80.7266L77.1875 13.3047L75.9688 14.2188L74.9688 15.2812ZM82.3906 18V9.39844H84.6719V10.7344H84.8125C84.9531 10.2656 85.2109 9.90365 85.5859 9.64844C85.9609 9.38802 86.4271 9.25781 86.9844 9.25781C87.1406 9.25781 87.2917 9.26823 87.4375 9.28906C87.5885 9.3099 87.7214 9.33594 87.8359 9.36719V11.3594C87.6641 11.3177 87.4896 11.2865 87.3125 11.2656C87.1406 11.2396 86.9661 11.2266 86.7891 11.2266C86.3568 11.2266 85.9818 11.3073 85.6641 11.4688C85.3464 11.625 85.1016 11.849 84.9297 12.1406C84.7578 12.4323 84.6719 12.7812 84.6719 13.1875V18H82.3906Z" fill="black"/>
</svg>
